# xmcd
#
# Track frame offsets:
#	183
#	45358
#	95758
#	114620
#	134328
#	162153
#	177638
#	187040
#
# Disc length: 2624 seconds
#
# Revision: 0
# Processed by: cddbd v1.5.2PL0 Copyright (c) Steve Scherf et al.
# Submitted via: dBpowerAMP V4.0
#
DISCID=6e0a3e08
DTITLE=Pink floyd - Live London
DYEAR=1970
DGENRE=Blues
TTITLE0=Atom hearth mother
TTITLE1=Echoes part 1
TTITLE2=The narrow way
TTITLE3=If
TTITLE4=One of these days
TTITLE5=Green is a colour
TTITLE6=Julia dream
TTITLE7=Murderistic woman
EXTD=
EXTT0=
EXTT1=
EXTT2=
EXTT3=
EXTT4=
EXTT5=
EXTT6=
EXTT7=
PLAYORDER=
